<svg xmlns="http://www.w3.org/2000/svg" id="e132bb42-55d1-45aa-8683-3ad44c7a96e9" data-name="Layer 1" width="127.9703" height="107.8971" viewBox="0 0 127.9703 107.8971"><path d="M105.802,39.2239a9.3911,9.3911,0,0,1-6.7138,3.4925.5161.5161,0,0,0-.537.5373c-.3581,2.8657-2.6854,4.8359-4.8336,6.4478-1.2532.9851-2.5958,1.97-3.9385,2.8657a5.5162,5.5162,0,0,1-4.744.8059c-2.3273-.4477-4.4756-.6268-6.4448.9851a12.7263,12.7263,0,0,0-3.1,4.5391,4.64,4.64,0,0,0-2.54-1.8525,6.76,6.76,0,0,0-5.3707,1.0746,27.2383,27.2383,0,0,0-3.205,2.3136c-.0672-.054-.1246-.1124-.1964-.1643-2.3217-1.7551-4.82-1.1549-6.9843.2477a15.7032,15.7032,0,0,0,.0025-5.2627c-.179-1.3432-.8056-3.7612-2.7748-3.2238a1.9219,1.9219,0,0,0-1.1661.9848q.003-5.9509.0025-11.91c0-5.0149,0-10.1194-.0895-15.1343a.4633.4633,0,0,0-.4958-.5361.5749.5749,0,0,0-1.026-.0908A195.0238,195.0238,0,0,1,38.5789,44.5667V3.7612c.179-.806-.9847-.806-.9847-.09V45.7623c-1.6007,1.9351-3.2725,3.8012-5.037,5.5708.431-4.2541.7071-8.5323.92-12.8256.537-12.5373.7161-25.3433,3.3119-37.7911C36.968,0,35.8939-.2687,35.7148.3582,31.9983,17.6046,33.0964,35.27,31.1826,52.6758A57.5053,57.5053,0,0,1,21.7511,60c-.6266.4478,0,1.4328.5371.9851a57.2382,57.2382,0,0,0,8.6886-6.5879c-.21,1.721-.44,3.44-.7221,5.155A97.2327,97.2327,0,0,1,22.02,85.7911,114.6963,114.6963,0,0,1,15.396,97.4328c-1.2532,1.8806-2.6854,3.7612-4.1175,5.6422-.9846,1.253-3.2224,4.746-5.2811,3.582-1.1637-.627-1.3427-2.508-1.6112-3.582-.3581-1.433-.6266-2.776-.8951-4.2093q-.8056-4.1642-1.3427-8.3284C1.79,87.6716,1.5219,84.806,1.3428,82.03c-.0895-1.4329-.0895-2.8657-.179-4.2985,0-1.3433-.2685-3.0448.2685-4.3881-.2685.6269.8056.9851,1.0742.2686.537-1.4328-1.6112-1.8806-2.2378-.6268-.4475.8955-.179,2.2388-.179,3.1343,0,1.5224.09,3.0448.09,4.4776a127.6218,127.6218,0,0,0,1.88,16.3881,82.4586,82.4586,0,0,0,1.79,8.1489c.5371,1.702,1.7007,3.135,3.67,2.687,2.0588-.537,3.4909-2.597,4.7441-4.209,1.5217-1.97,2.9538-3.94,4.386-6a95.0838,95.0838,0,0,0,12.442-27.0447,109.0519,109.0519,0,0,0,3.273-17.4766q2.7487-2.6561,5.23-5.59V68.9552c0,1.4329.1791,3.8508,1.88,4.3881,2.1482.7164,3.9384-2.7761,4.8335-4.209A24.4509,24.4509,0,0,0,47.44,60.9851c.179-.7164-.9846-.9851-1.0741-.2687A21.2977,21.2977,0,0,1,43.86,67.6119a19.7373,19.7373,0,0,1-1.88,2.8657c-.6266.806-1.9693,2.7761-2.8644,1.2537a5.6262,5.6262,0,0,1-.537-2.9552V46.3167a131.4764,131.4764,0,0,0,8.3246-11.4809c1.7832-2.6759,3.4909-5.36,5.1937-8.1026.0858,17.474.0863,34.8649-.0019,52.3415,0,4.7084-.0744,9.4913-.084,14.2094A5.7542,5.7542,0,0,1,51.29,84.806c.5371-.5373-.2685-1.2537-.8056-.806-3.1329,3.0448-2.1482,8.8657,1.79,10.6567a.5276.5276,0,0,0,.8056-.4477q.147-14.5674.16-29.0841a.5939.5939,0,0,0,.6452.0691,5.5656,5.5656,0,0,0,2.8427-3.0805,7.88,7.88,0,0,1,1.5433-1.0389c1.6112-.8059,3.76-1.0746,5.2812.09l.0045.004a10.94,10.94,0,0,0-3.6745,6.2646c-.179,1.4329.09,3.8508,1.4322,4.7463,1.5217.9851,2.5958-1.1642,3.1329-2.2388,1.3053-2.4583,2.5355-6.0991.8274-8.5554.0525-.0435.1047-.0879.1572-.1312,1.5216-1.2537,3.2223-2.7761,5.2811-3.1343,1.79-.3582,3.8489.5373,4.207,2.4179.09.6269.8951.4478,1.0741,0,.9846-2.3283,2.2378-5.194,4.7441-6.1791,2.6853-.9851,5.46,1.1642,8.1454,0a24.9628,24.9628,0,0,0,3.76-2.5074c1.0741-.806,2.2377-1.612,3.2223-2.5075a10.2842,10.2842,0,0,0,3.66-5.6006A10.5564,10.5564,0,0,0,106.607,40.03C107.055,39.4925,106.249,38.6866,105.802,39.2239Zm-52.5491,17.37c.3188.0472.6842-.12.6325-.5342-.0895-.7164,0-3.7612,1.3427-2.9552.9846.5373.9846,3.3134.9846,4.2985a10.1119,10.1119,0,0,1-.6813,4.3895,19.9594,19.9594,0,0,0-2.29,2.4182Q53.2488,60.4029,53.2529,56.5939Zm11.4633,9.8539a16.8143,16.8143,0,0,1-1.0741,2.6865c-.2686.6269-.8056,2.06-1.5217,2.06-.8951,0-1.1637-1.8806-1.1637-2.597a6.7513,6.7513,0,0,1,.6266-2.9552A10.7252,10.7252,0,0,1,64.4244,62.11,5.3806,5.3806,0,0,1,64.7162,66.4478Z" transform="translate(-0.0098 -0.0068)"></path><path d="M127.105,10.388c-5.55,2.7762-11.01,5.6418-16.56,8.418-.626.3582-.089,1.2537.537.985,5.55-2.7761,11.01-5.6418,16.56-8.4179C128.358,11.0149,127.821,10.1194,127.105,10.388Z" transform="translate(-0.0098 -0.0068)"></path></svg>